<svg xmlns="http://www.w3.org/2000/svg" fill="none" viewBox="0 0 24 24">
  <defs>
    <clipPath id="a">
      <path fill="#fff" fill-opacity="0" d="M0 0h24v24H0z"/>
    </clipPath>
  </defs>
  <g clip-path="url(#a)">
    <path fill="#FFF" d="M22 18c0 .55-.45 1-1 1h-8.01c-.26 0-.52-.11-.7-.3A.967.967 0 0 1 12 18c0-.26.1-.52.29-.7.18-.19.44-.3.7-.3H21c.55 0 1 .45 1 1Zm0-6a1 1 0 0 1-1 .99H2.99c-.26 0-.52-.1-.7-.29A.984.984 0 0 1 2 12c0-.27.1-.52.29-.71.18-.19.44-.29.7-.29H21c.55 0 1 .45 1 1Zm-1-5.01c.26 0 .52-.11.7-.3.19-.18.3-.44.3-.7 0-.26-.11-.52-.3-.7A.967.967 0 0 0 21 5H8.99c-.13 0-.26.02-.38.07s-.23.12-.32.22c-.1.09-.17.2-.22.32-.05.12-.07.25-.07.38s.02.26.07.38.12.23.22.32a.995.995 0 0 0 .7.3H21Z"/>
  </g>
</svg>
