<svg width="17.000000" height="13.000000" viewBox="0 0 17 13" fill="none" xmlns="http://www.w3.org/2000/svg" xmlns:xlink="http://www.w3.org/1999/xlink">
	<desc>
			Created with Pixso.
	</desc>
	<defs/>
	<path id="Arrow 1" d="M1.65 6L6.6 1.05C6.99 0.65 6.99 0.03 6.6 -0.37C6.2 -0.77 5.58 -0.77 5.18 -0.37L-0.47 5.29C-0.87 5.68 -0.87 6.31 -0.47 6.7L5.18 12.36C5.58 12.76 6.2 12.76 6.6 12.36C6.99 11.96 6.99 11.34 6.6 10.94L1.65 6Z" fill="#FFFFFF" fill-opacity="1.000000" fill-rule="nonzero"/>
	<path id="Arrow 1" d="M2.65 5L6.6 1.05C6.99 0.65 6.99 0.03 6.6 -0.37C6.2 -0.77 5.58 -0.77 5.18 -0.37L-0.47 5.29C-0.87 5.68 -0.87 6.31 -0.47 6.7L5.18 12.36C5.58 12.76 6.2 12.76 6.6 12.36C6.99 11.96 6.99 11.34 6.6 10.94L2.65 7L17 7L17 5L2.65 5Z" fill="#011C44" fill-opacity="1.000000" fill-rule="evenodd"/>
</svg>
