<svg xmlns="http://www.w3.org/2000/svg" aria-hidden="true" overflow="hidden" style="position:absolute;width:0;height:0">
  <defs>
    <symbol id="icon-Phone1" viewBox="0 0 32 32">
      <path d="m27.65 22.95-.17-.21c-1.38-1.74-2.52-2.64-3.51-2.76-.85-.12-1.67.47-2.54 1.08l-.94.58c-.11.06-.22.1-.33.13-.54.16-1.92.25-2.7-.47-.91-.83-2.32-2.35-3.42-3.68-1.05-1.38-2.2-3.1-2.8-4.18-.51-.91-.09-2.19.2-2.67.05-.09.13-.18.21-.27l.82-.77c.02-.01.02-.02.03-.03s.02-.01.03-.02c.75-.62 1.52-1.27 1.62-2.1.12-.98-.48-2.3-1.86-4.03l-.16-.22C11.27 2.24 9.99.59 8.14.87c-.73.1-1.38.35-2.05.77 0 .01-.01.01-.01.02-.01 0-.01 0-.02.01l-.93.69c-.01 0-.02.01-.02.02-.01.01-.02.01-.03.02-.11.09-.22.18-.32.28-.95.84-2.99 3.29-1.6 7.81.9 2.92 2.76 6.33 5.39 9.88l-.03.02 1.45 1.81.02-.01c2.84 3.37 5.74 5.98 8.4 7.55 1.78 1.06 3.32 1.41 4.6 1.41 1.68 0 2.88-.61 3.48-1l.38-.25c.04-.03.07-.07.1-.11l.83-.62c.01-.01.01-.02.02-.03h.02c.59-.54.99-1.1 1.27-1.77.74-1.7-.57-3.34-1.44-4.42zm.46 4c-.22.52-.54.96-1 1.39l-1.23.92c-1.11.72-3.49 1.62-6.94-.43-2.66-1.58-5.58-4.25-8.46-7.71l-.78-.99c-2.71-3.59-4.62-7.04-5.52-9.95-1.17-3.8.31-5.83 1.29-6.71.1-.09.2-.18.3-.26l.9-.67c.54-.34 1.05-.53 1.63-.62 1.24-.19 2.24 1.12 2.98 2.07l.18.22c1.53 1.94 1.68 2.86 1.63 3.23-.05.42-.68.96-1.24 1.43l-.08.06-.01.01c0 .01-.01.01-.01.01l-.85.79c-.01 0-.01.01-.02.02 0 0-.01.01-.02.01-.13.15-.24.3-.34.45-.47.8-.93 2.46-.21 3.74.62 1.12 1.8 2.89 2.89 4.32 1.14 1.38 2.59 2.95 3.54 3.81.7.64 1.68.86 2.53.86.46 0 .87-.06 1.19-.15.17-.05.34-.12.52-.21.01 0 .01-.01.02-.02h.02l.99-.62c.03-.02.05-.05.08-.08l.01.01c.61-.42 1.31-.91 1.74-.84.39.04 1.26.42 2.8 2.36l.18.22c.75.94 1.77 2.21 1.29 3.33z"/>
    </symbol>
    <symbol id="icon-Instagram1" viewBox="0 0 32 32">
      <path d="M16 10.25c-1.14 0-2.25.33-3.2.96-.95.64-1.68 1.53-2.12 2.58a5.753 5.753 0 0 0-.32 3.33 5.68 5.68 0 0 0 1.57 2.94c.8.81 1.83 1.35 2.94 1.57 1.12.23 2.27.11 3.33-.32a5.803 5.803 0 0 0 2.58-2.12c.63-.95.97-2.06.97-3.19A5.752 5.752 0 0 0 16 10.25zm0 10a4.238 4.238 0 0 1-3.93-2.63c-.32-.78-.41-1.63-.24-2.45a4.22 4.22 0 0 1 3.34-3.34c.82-.17 1.67-.08 2.45.24s1.44.86 1.91 1.56c.47.7.72 1.52.72 2.37-.01 1.12-.46 2.2-1.25 3-.8.79-1.88 1.24-3 1.25zm5.5-16.5h-11c-1.8 0-3.51.71-4.78 1.97a6.775 6.775 0 0 0-1.97 4.78v11c0 1.79.71 3.5 1.97 4.77a6.784 6.784 0 0 0 4.78 1.98h11c1.79 0 3.5-.72 4.77-1.98a6.778 6.778 0 0 0 1.98-4.77v-11c0-1.8-.72-3.51-1.98-4.78a6.769 6.769 0 0 0-4.77-1.97zm5.25 17.75c0 1.39-.56 2.72-1.54 3.71a5.28 5.28 0 0 1-3.71 1.54h-11c-1.4 0-2.73-.56-3.72-1.54a5.27 5.27 0 0 1-1.53-3.71v-11c0-1.4.55-2.73 1.53-3.72.99-.98 2.32-1.53 3.72-1.53h11c1.39 0 2.72.55 3.71 1.53.98.99 1.54 2.32 1.54 3.72v11zm-3-12c0 .24-.08.48-.22.69-.13.2-.33.37-.56.46-.22.09-.48.12-.72.07s-.46-.17-.64-.34c-.17-.18-.29-.4-.34-.64s-.02-.49.07-.72a1.25 1.25 0 0 1 1.16-.77c.33 0 .64.13.88.36.23.24.37.55.37.89z"/>
    </symbol>
    <symbol id="icon-Facebook1" viewBox="0 0 32 32">
      <path d="M23.98 2.12a38.95 38.95 0 0 0-4.05-.21c-4.48 0-7.27 2.86-7.27 7.46v3.12H8.89c-.17 0-.34.07-.47.19-.12.13-.19.3-.19.48v5.13a.665.665 0 0 0 .66.67h3.77v10.29c0 .18.07.35.2.47.12.13.29.2.47.2h5.3c.18 0 .35-.07.47-.2.13-.12.2-.29.2-.47V18.96h3.75c.17 0 .32-.06.44-.17.13-.11.2-.25.23-.41l.66-5.14c.01-.09 0-.19-.03-.28-.02-.09-.07-.17-.13-.24s-.14-.13-.23-.17a.626.626 0 0 0-.27-.06H19.3V9.88c0-1.3.26-1.84 1.88-1.84h2.71c.18 0 .35-.07.48-.19.12-.13.19-.3.19-.47v-4.6a.72.72 0 0 0-.16-.44.691.691 0 0 0-.42-.22zm-.75 4.59h-2.05c-2.88 0-3.21 1.81-3.21 3.17v3.28c0 .17.07.34.19.47.13.12.29.19.47.19h4.33l-.49 3.8h-3.84a.668.668 0 0 0-.66.67v10.29H14V18.29c0-.18-.08-.35-.2-.47a.65.65 0 0 0-.47-.2H9.56v-3.8h3.77c.18 0 .34-.07.47-.19.12-.13.2-.3.2-.47V9.37c0-3.83 2.22-6.12 5.93-6.12 1.35 0 2.56.07 3.3.14v3.32z"/>
    </symbol>
    <symbol id="icon-Phone" viewBox="0 0 32 32">
      <path d="m27.65 22.956-.175-.221c-1.371-1.73-2.514-2.636-3.497-2.75-.853-.122-1.676.472-2.552 1.074l-.93.587a2.777 2.777 0 0 1-.328.13c-.549.152-1.928.244-2.712-.472-.907-.83-2.316-2.354-3.413-3.68-1.051-1.379-2.202-3.101-2.804-4.175-.51-.922-.084-2.202.206-2.674.053-.091.122-.183.206-.274l.823-.762c.015-.015.023-.03.03-.038s.023-.008.03-.015c.747-.625 1.516-1.272 1.615-2.103.13-.975-.48-2.293-1.851-4.03l-.168-.213C11.277 2.25 9.989.597 8.145.871a5.057 5.057 0 0 0-2.05.777c-.008 0-.008.008-.015.015-.008 0-.015 0-.015.008l-.937.686c-.008.008-.015.023-.023.03s-.015.008-.023.015l-.32.274c-.945.846-2.994 3.291-1.6 7.817.899 2.926 2.758 6.331 5.387 9.882l-.023.023 1.448 1.806.015-.008c2.85 3.368 5.745 5.973 8.404 7.55 1.775 1.051 3.322 1.402 4.602 1.402 1.676 0 2.872-.602 3.474-.998l.381-.251c.046-.03.076-.069.107-.107l.823-.625.023-.023c.008-.008.015 0 .015-.008.587-.533.998-1.097 1.28-1.76.731-1.707-.579-3.337-1.448-4.419zm.464 4c-.221.518-.541.952-1.006 1.379l-1.227.93c-1.112.724-3.49 1.615-6.941-.434-2.659-1.577-5.585-4.244-8.465-7.71l-.777-.99c-2.712-3.589-4.617-7.032-5.516-9.95-1.173-3.794.305-5.829 1.288-6.705.099-.091.206-.175.305-.259v-.008l.899-.663a4.112 4.112 0 0 1 1.623-.625c1.242-.183 2.248 1.12 2.987 2.072l.175.221c1.539 1.935 1.684 2.857 1.638 3.23-.053.419-.693.952-1.25 1.425l-.076.069c-.008 0-.008.008-.008.008-.008 0-.008 0-.015.008l-.853.785c0 .008-.008.015-.008.023-.008.008-.023.008-.023.015a3.048 3.048 0 0 0-.343.45c-.472.8-.93 2.453-.213 3.733.625 1.12 1.806 2.895 2.895 4.32 1.143 1.387 2.59 2.949 3.535 3.81.701.648 1.684.861 2.537.861.45 0 .869-.061 1.189-.152.16-.046.335-.114.51-.206.015 0 .015-.015.03-.015 0-.008.015-.008.015-.008l.99-.617c.03-.023.053-.053.084-.076l.008.008c.61-.419 1.303-.914 1.737-.846.389.046 1.265.419 2.804 2.362l.175.221c.747.937 1.775 2.217 1.295 3.337z"/>
    </symbol>
    <symbol id="icon-Instagram" viewBox="0 0 32 32">
      <path d="M16 10.248a5.742 5.742 0 0 0-5.318 3.551 5.763 5.763 0 0 0-.328 3.322 5.716 5.716 0 0 0 1.577 2.941 5.709 5.709 0 0 0 2.941 1.577 5.756 5.756 0 0 0 5.905-2.446 5.743 5.743 0 0 0 .968-3.192 5.726 5.726 0 0 0-1.684-4.069A5.717 5.717 0 0 0 16 10.248zm0 9.996a4.186 4.186 0 0 1-2.362-.716c-.701-.465-1.25-1.128-1.57-1.905s-.404-1.63-.244-2.453a4.265 4.265 0 0 1 3.345-3.345c.823-.16 1.676-.076 2.453.244s1.44.869 1.905 1.57c.472.693.716 1.516.716 2.362a4.22 4.22 0 0 1-1.25 2.994 4.22 4.22 0 0 1-2.994 1.25zm5.493-16.495H10.499c-1.79 0-3.512.709-4.777 1.973s-1.973 2.987-1.973 4.777v10.994c0 1.79.709 3.512 1.973 4.777s2.987 1.973 4.777 1.973h10.994c1.79 0 3.512-.709 4.777-1.973s1.973-2.987 1.973-4.777V10.499c0-1.79-.709-3.512-1.973-4.777s-2.987-1.973-4.777-1.973zm5.25 17.744a5.274 5.274 0 0 1-1.531 3.718 5.27 5.27 0 0 1-3.718 1.531H10.5a5.274 5.274 0 0 1-3.718-1.531 5.27 5.27 0 0 1-1.531-3.718V10.499c0-1.394.549-2.728 1.531-3.718A5.27 5.27 0 0 1 10.5 5.25h10.994c1.394 0 2.728.549 3.718 1.531a5.27 5.27 0 0 1 1.531 3.718v10.994zm-2.994-12c0 .251-.076.495-.213.701s-.335.366-.564.457c-.229.091-.48.122-.716.069-.244-.046-.465-.168-.64-.343s-.297-.396-.343-.64c-.053-.236-.023-.488.069-.716s.259-.427.457-.564c.206-.137.45-.213.701-.213.328 0 .648.137.884.366.229.236.366.556.366.884z"/>
    </symbol>
    <symbol id="icon-Facebook" viewBox="0 0 32 32">
      <path d="M23.985 2.126a36.107 36.107 0 0 0-4.053-.206c-4.48 0-7.269 2.85-7.269 7.451v3.116H8.899a.667.667 0 0 0-.472.198.648.648 0 0 0-.198.472v5.135a.664.664 0 0 0 .67.662h3.764v10.293c0 .175.069.35.198.472.122.122.29.198.472.198h5.303a.695.695 0 0 0 .472-.198.674.674 0 0 0 .19-.472V18.954h3.756a.667.667 0 0 0 .663-.579l.663-5.135a.872.872 0 0 0-.023-.282.849.849 0 0 0-.137-.244.687.687 0 0 0-.503-.229h-4.419V9.879c0-1.295.259-1.836 1.882-1.836h2.712a.64.64 0 0 0 .472-.198.637.637 0 0 0 .198-.472V2.786a.667.667 0 0 0-.579-.663zm-.755 4.586h-2.057c-2.872 0-3.208 1.806-3.208 3.17v3.276c0 .175.069.35.198.472.122.122.29.198.465.198h4.335l-.495 3.794h-3.832a.667.667 0 0 0-.472.198.648.648 0 0 0-.198.472v10.293h-3.97V18.292a.652.652 0 0 0-.198-.472.665.665 0 0 0-.465-.198H9.562v-3.794h3.771a.665.665 0 0 0 .465-.198.648.648 0 0 0 .198-.472V9.371c0-3.832 2.217-6.118 5.935-6.118 1.349 0 2.56.069 3.299.137v3.322z"/>
    </symbol>
    <symbol id="icon-Arrow" viewBox="0 0 42 32">
      <path d="M4.062 14.769 16.247 2.584a2.48 2.48 0 0 0 0-3.495 2.436 2.436 0 0 0-3.495 0L-1.156 13.021a2.408 2.408 0 0 0 0 3.471l13.908 13.932a2.436 2.436 0 0 0 3.495 0 2.48 2.48 0 0 0 0-3.495L4.062 14.769z"/>
      <path d="m6.523 12.308 9.723-9.723a2.48 2.48 0 0 0 0-3.495 2.436 2.436 0 0 0-3.495 0L-1.157 13.022a2.408 2.408 0 0 0 0 3.471l13.908 13.932a2.436 2.436 0 0 0 3.495 0 2.48 2.48 0 0 0 0-3.495l-9.723-9.698h35.323v-4.923H6.523z"/>
    </symbol>
  </defs>
</svg>
